<svg xmlns="http://www.w3.org/2000/svg" width="525" height="860" fill="none" viewBox="0 0 525 860"><path fill="#FEBFFF" d="M111 873.034C169.8 782.234 155.5 621.534 141 552.534C219.167 491.534 377.1 415.734 383.5 600.534C391.5 831.534 433.5 771.534 459 873.034C479.4 954.234 360.167 973.201 298 972.534C211.167 977.201 52.1999 963.834 111 873.034Z"/><mask id="mask0" width="385" height="655" x="88" y="104" mask-type="alpha" maskUnits="userSpaceOnUse"><path fill="#B899B9" d="M242.5 722.045C167.7 655.245 88 448.534 88 345.045C88 167.045 207.667 110.545 267.5 104.545C327.5 103.711 452 150.645 470 345.045C488 539.445 420.167 677.378 384 722.045C368 749.878 317.3 788.845 242.5 722.045Z"/></mask><g mask="url(#mask0)"><path fill="#B899B9" d="M111 873.034C169.8 782.234 155.5 621.534 141 552.534C219.167 491.534 377.1 415.734 383.5 600.534C391.5 831.534 433.5 771.534 459 873.034C479.4 954.234 360.167 973.201 298 972.534C211.167 977.201 52.1999 963.834 111 873.034Z"/></g><path fill="#FEBFFF" d="M211.5 652.045C136.7 585.245 57 378.534 57 275.045C57 97.0447 176.667 40.5448 236.5 34.5448C296.5 33.7114 421 80.6448 439 275.045C457 469.445 389.167 607.378 353 652.045C337 679.878 286.3 718.845 211.5 652.045Z"/><path fill="#FEBFFF" d="M317 171.534L179 203.534C178.333 183.867 188.5 143.834 234.5 141.034C292 137.534 274 123.534 317 171.534Z"/><path fill="#FEBFFF" d="M446.456 457.498C462.869 451.128 477.12 426.091 482.194 414.369C511.314 380.972 554.729 307.939 495.43 282.991C436.132 258.042 419.608 344.035 412.704 387.165C404.101 440.91 430.044 463.868 446.456 457.498Z"/><path fill="#FEBFFF" d="M78.5436 483.498C62.1307 477.128 47.8797 452.091 42.8058 440.369C13.6862 406.972 -29.7286 333.939 29.5696 308.991C88.8678 284.042 105.392 370.035 112.296 413.165C120.899 466.91 94.9565 489.868 78.5436 483.498Z"/><path stroke="#000" stroke-linecap="round" stroke-width="10" d="M82 389.188C81.4581 378.913 75.7412 361.444 57.2088 373.775C38.6764 386.105 66.0144 407.419 82 416.534"/><path stroke="#000" stroke-linecap="round" stroke-width="10" d="M437 367.188C437.542 356.913 443.259 339.444 461.791 351.775C480.324 364.105 452.986 385.419 437 394.534"/><path stroke="#000" stroke-linecap="round" stroke-width="10" d="M276.5 342.534C275.833 359.034 279.2 400.234 298 433.034C306.5 433.867 324.2 439.934 327 457.534C329.8 475.134 308.833 487.201 298 491.034L262.5 468.034"/><path fill="#fff" d="M231.758 350.005C232.758 310.671 213.358 248.005 127.758 312.005C42.1581 376.005 161.425 364.005 231.758 350.005Z"/><path fill="#fff" d="M300.464 344.432C283.67 308.85 276.119 243.686 380.271 267.68C484.423 291.675 370.463 328.846 300.464 344.432Z"/><mask id="mask1" width="82" height="83" x="153" y="301" mask-type="alpha" maskUnits="userSpaceOnUse"><circle cx="194" cy="342.534" r="41" fill="#000"/></mask><g mask="url(#mask1)"><path fill="#000" d="M231.758 350.005C232.758 310.671 213.358 248.005 127.758 312.005C42.1581 376.005 161.425 364.005 231.758 350.005Z"/></g><mask id="mask2" width="82" height="83" x="329" y="272" mask-type="alpha" maskUnits="userSpaceOnUse"><path fill="#000" d="M411 313.534C411 336.178 392.644 354.534 370 354.534C347.356 354.534 329 336.178 329 313.534C329 290.89 347.356 272.534 370 272.534C392.644 272.534 411 290.89 411 313.534Z"/></mask><g mask="url(#mask2)"><path fill="#000" d="M300.464 344.432C283.67 308.85 276.119 243.686 380.271 267.68C484.423 291.675 370.463 328.846 300.464 344.432Z"/></g><path stroke="#000" stroke-linecap="round" stroke-width="10" d="M226 273.034C216.833 257.201 177 240.934 91 302.534"/><path stroke="#000" stroke-linecap="round" stroke-width="10" d="M278.5 269.034C283.333 249.701 316.6 220.034 411 256.034"/><path fill="#fff" stroke="#000" stroke-width="10" d="M324.124 554.082L199.914 506.534C189.609 550.238 208.885 572.608 248.11 587.623C283.927 601.334 311.497 574.947 324.124 554.082Z"/><circle cx="324" cy="81" r="81" fill="#BEA278"/><ellipse cx="232" cy="84.5" fill="#BEA278" rx="76" ry="75.5"/><ellipse cx="143" cy="138.5" fill="#BEA278" rx="75" ry="75.5"/><circle cx="98" cy="204" r="51" fill="#BEA278"/><circle cx="386" cy="160" r="51" fill="#BEA278"/><path stroke="#000" stroke-linecap="round" stroke-width="7" d="M127.498 166.5C152.116 152.59 186.999 91.557 131.999 113.5C72.3677 137.29 174.214 161.057 237 123C269.424 103.347 261.499 61.9999 228.999 61.9999C197.999 68.9999 226.193 116.946 309.221 105.643C392.248 94.3399 358.095 58.8381 323.5 40C296.779 25.4498 296.746 127.908 385.5 140"/><path stroke="#000" stroke-linecap="round" stroke-width="8" d="M256.68 670L250 683.203M286.371 670L293.794 689M306.412 670L322 679.983"/><path stroke="#000" stroke-linecap="round" stroke-width="8" d="M249 643L232 655.5M315.5 643L347.5 655.5"/></svg>