<svg width="575" height="900" viewBox="0 0 575 900" fill="none" xmlns="http://www.w3.org/2000/svg">
<ellipse cx="354.322" cy="250.69" rx="215.737" ry="43.737" transform="rotate(-166.181 354.322 250.69)" fill="#E8E8E8"/>
<path d="M160.353 918.596C217.845 829.815 203.863 672.689 189.686 605.223C266.114 545.58 420.536 471.465 426.793 652.156C434.615 878.019 475.681 819.353 500.614 918.596C520.561 997.991 403.979 1016.54 343.194 1015.88C258.292 1020.45 102.86 1007.38 160.353 918.596Z" fill="#FEBFFF"/>
<mask id="mask0" mask-type="alpha" maskUnits="userSpaceOnUse" x="137" y="167" width="378" height="641">
<path d="M288.929 770.965C215.792 705.65 137.864 503.536 137.864 402.348C137.864 228.307 254.87 173.063 313.373 167.196C372.038 166.382 493.77 212.271 511.37 402.348C528.969 592.425 462.644 727.291 427.282 770.965C411.638 798.179 362.065 836.279 288.929 770.965Z" fill="#B899B9"/>
</mask>
<g mask="url(#mask0)">
<path d="M160.353 918.596C217.845 829.815 203.863 672.689 189.686 605.223C266.114 545.58 420.536 471.465 426.793 652.156C434.615 878.019 475.681 819.353 500.614 918.596C520.561 997.991 403.979 1016.54 343.194 1015.88C258.292 1020.45 102.86 1007.38 160.353 918.596Z" fill="#B899B9"/>
</g>
<path d="M258.619 702.521C185.482 637.207 107.554 435.093 107.554 333.905C107.554 159.863 224.56 104.62 283.063 98.753C341.728 97.9382 463.46 143.828 481.06 333.905C498.659 523.982 432.334 658.848 396.972 702.521C381.328 729.736 331.755 767.836 258.619 702.521Z" fill="#FEBFFF"/>
<mask id="mask1" mask-type="alpha" maskUnits="userSpaceOnUse" x="0" y="-24" width="523" height="362">
<rect y="84.6447" width="475.59" height="259.507" transform="rotate(-13.2053 0 84.6447)" fill="white"/>
</mask>
<g mask="url(#mask1)">
<path d="M256.922 722.998C179.587 653.934 97.186 440.217 97.186 333.221C97.186 149.188 220.908 90.7731 282.77 84.5698C344.803 83.7082 473.523 132.232 492.133 333.221C510.743 534.209 440.61 676.818 403.218 722.998C386.676 751.775 334.257 792.062 256.922 722.998Z" fill="white"/>
</g>
<path d="M361.772 232.696L226.84 263.984C226.189 244.755 236.129 205.612 281.106 202.874C337.328 199.452 319.728 185.763 361.772 232.696Z" fill="#FEBFFF"/>
<path d="M488.35 512.301C504.398 506.073 518.332 481.593 523.293 470.131C551.765 437.476 594.214 366.068 536.235 341.674C478.255 317.281 462.099 401.361 455.348 443.531C446.936 496.082 472.302 518.529 488.35 512.301Z" fill="#FEBFFF"/>
<path d="M128.618 537.723C112.57 531.495 98.6363 507.014 93.6752 495.553C65.2031 462.898 22.7538 391.49 80.7333 367.096C138.713 342.702 154.869 426.783 161.62 468.953C170.032 521.503 144.666 543.951 128.618 537.723Z" fill="#FEBFFF"/>
<path d="M131.998 445.51C131.468 435.463 125.878 418.383 107.758 430.44C89.6374 442.496 116.368 463.335 131.998 472.248" stroke="black" stroke-width="10" stroke-linecap="round"/>
<path d="M479.104 423.999C479.634 413.952 485.223 396.872 503.344 408.929C521.464 420.985 494.734 441.824 479.104 450.737" stroke="black" stroke-width="10" stroke-linecap="round"/>
<path d="M322.173 399.893C321.521 416.026 324.813 456.31 343.194 488.381C351.505 489.195 368.812 495.127 371.55 512.336C374.287 529.544 353.787 541.343 343.194 545.091L308.484 522.602" stroke="black" stroke-width="10" stroke-linecap="round"/>
<path d="M278.426 407.198C279.404 368.739 260.435 307.466 176.738 370.043C93.042 432.62 209.656 420.887 278.426 407.198Z" fill="white"/>
<path d="M345.604 401.749C329.183 366.959 321.801 303.243 423.636 326.704C525.472 350.165 414.047 386.51 345.604 401.749Z" fill="white"/>
<mask id="mask2" mask-type="alpha" maskUnits="userSpaceOnUse" x="201" y="359" width="81" height="81">
<circle cx="241.507" cy="399.893" r="40.0883" fill="black"/>
</mask>
<g mask="url(#mask2)">
<path d="M278.426 407.198C279.404 368.739 260.435 307.466 176.738 370.043C93.042 432.62 209.656 420.887 278.426 407.198Z" fill="black"/>
</g>
<mask id="mask3" mask-type="alpha" maskUnits="userSpaceOnUse" x="373" y="331" width="81" height="81">
<circle cx="413.594" cy="371.538" r="40.0883" fill="black"/>
</mask>
<g mask="url(#mask3)">
<path d="M345.604 401.749C329.183 366.959 321.801 303.243 423.636 326.704C525.472 350.165 414.047 386.51 345.604 401.749Z" fill="black"/>
</g>
<path d="M272.796 331.939C263.833 316.457 224.885 300.553 140.798 360.783" stroke="black" stroke-width="10" stroke-linecap="round"/>
<path d="M324.128 328.028C328.854 309.124 361.381 280.117 453.681 315.317" stroke="black" stroke-width="10" stroke-linecap="round"/>
<path d="M368.738 606.737L247.29 560.246C237.213 602.979 256.061 624.851 294.413 639.532C329.434 652.938 356.391 627.138 368.738 606.737Z" fill="white" stroke="black" stroke-width="10"/>
<circle cx="331.462" cy="184.785" r="42.0438" fill="#BEA278"/>
<circle cx="281.596" cy="190.652" r="42.0438" fill="#BEA278"/>
<circle cx="236.618" cy="205.319" r="42.0438" fill="#BEA278"/>
<path d="M231.241 225.363C248.515 222.103 280.618 210.892 270.84 192.119C261.062 173.346 246.885 176.474 241.018 180.385C220.485 195.541 266.551 231.791 296.262 215.585C328.528 197.985 326.248 175.889 318.262 171.097C308.484 165.23 287.267 173.346 296.262 192.119C305.257 210.892 334.558 199.941 348.083 192.119" stroke="black" stroke-width="7" stroke-linecap="round"/>
<path d="M302.681 720L296.001 733.203M332.372 720L339.795 739M352.413 720L368.001 729.983" stroke="black" stroke-width="8" stroke-linecap="round"/>
<path d="M295.001 693L278.001 705.5M361.501 693L393.501 705.5" stroke="black" stroke-width="8" stroke-linecap="round"/>
</svg>
